<svg xmlns="http://www.w3.org/2000/svg" width="268.011" height="18.201" viewBox="0 0 268.011 18.201">
  <defs>
    <style>
      .cls-1 {
        fill: #fff;
        opacity: 0.302;
      }
    </style>
  </defs>
  <path id="Shape_508_copy_13" data-name="Shape 508 copy 13" class="cls-1" d="M2374.12,8980.343c-.045-.024-.1-.031-.142-.061,0,0,0,0-.007,0l-.8-.555c-.135-.093-.284-.2-.424-.291-.3-.205-.62-.412-.913-.608-.593-.4-1.137-.78-1.669-1.148-4.612-3.078-10.781-6.771-14.489-6.4a6.438,6.438,0,0,0-5.749,7.062,4.838,4.838,0,0,0,5.293,4.353,3.515,3.515,0,0,0,2.158-1.042,2.784,2.784,0,0,1-.422-.229,2.939,2.939,0,1,1,4.446-1.629,6.593,6.593,0,0,1-5.882,5.9,7.847,7.847,0,0,1-8.58-7.05,9.455,9.455,0,0,1,8.433-10.364c4.312-.433,10.3,2.876,15.195,6.061.045.024.1.029.142.059,0,0,0,0,.007,0l.805.555c.133.095.282.2.424.293.3.2.618.41.911.609.593.4,1.137.777,1.671,1.147,4.61,3.076,10.779,6.771,14.489,6.4a6.434,6.434,0,0,0,5.747-7.062,4.843,4.843,0,0,0-5.293-4.354,3.521,3.521,0,0,0-2.188,1.076,3.156,3.156,0,0,1,.487.264,2.953,2.953,0,0,1,.785,4.087,2.924,2.924,0,0,1-5.266-2.33,6.585,6.585,0,0,1,5.882-6.094,7.733,7.733,0,0,1,5.745,1.741,7.827,7.827,0,0,1,2.837,5.31,9.456,9.456,0,0,1-8.435,10.361q-.386.038-.79.038C2384.294,8986.439,2378.727,8983.335,2374.12,8980.343Zm26.869-3a3.011,3.011,0,1,1,3.011,3A3.007,3.007,0,0,1,2400.989,8977.339Zm-63.67,0a3.011,3.011,0,1,1,3.011,3A3.007,3.007,0,0,1,2337.319,8977.339Zm-196.82,1.509a1.508,1.508,0,0,1,0-3.016h190.006a1.508,1.508,0,0,1,0,3.016Z" transform="translate(-2139 -8968.238)"/>
</svg>
